<svg width="32" height="25" viewBox="0 0 32 25" fill="none" xmlns="http://www.w3.org/2000/svg">
<path d="M0 0H27.0145V3.33333H0V0ZM0 10H18.5725V13.3333H0V10ZM0 20H11.8188V23.3333H0V20ZM30.0536 14.8333L31.742 13C31.9082 12.8167 32 12.5793 32 12.3333C32 12.0874 31.9082 11.85 31.742 11.6667L28.7029 8.66667C28.5172 8.50268 28.2767 8.41202 28.0275 8.41202C27.7784 8.41202 27.5379 8.50268 27.3522 8.66667L25.6638 10.3333L30.0536 14.8333ZM24.4819 11.5L15.1957 20.5V25H19.5855L29.0406 15.8333L24.4819 11.3333V11.5Z" fill="#212121"/>
</svg>
