<svg width="193" height="63" viewBox="0 0 193 63" fill="none" xmlns="http://www.w3.org/2000/svg">
<path d="M0.55127 1.65796H90.9855V62.4474H0.55127V1.65796Z" fill="white" stroke="#C9C9C9"/>
<path d="M37.418 0H20.2056V3.75H37.418V0Z" fill="#313131"/>
<path d="M19.4143 31.1699L30.5874 19.7537H35.7918L24.2184 32.2277L35.8646 45.577H30.5146L21.2341 35.2185L19.4143 37.0422V45.577H15.229V19.7537H19.4143V31.1699ZM48.7794 45.577H44.5576V35.5468L35.6046 19.7537H40.4451L46.6685 31.4982L52.8555 19.7537H57.7687L48.7794 35.5468V45.577ZM58.1822 37.6258V27.7049C58.1822 25.1031 59.1648 23.0728 61.1301 21.6138C63.0954 20.1305 65.4368 19.3889 68.1542 19.3889C70.1195 19.3889 71.9635 19.8995 73.6862 20.9208C75.4331 21.9421 76.7554 23.401 77.6531 25.2977L73.9045 27.1578C73.298 26.0393 72.4609 25.1761 71.3933 24.5682C70.3258 23.936 69.2097 23.6199 68.045 23.6199C66.5165 23.6199 65.182 23.9846 64.0417 24.7141C62.9256 25.4192 62.3675 26.4162 62.3675 27.7049V37.6258C62.3675 38.9145 62.9256 39.9236 64.0417 40.6531C65.182 41.3582 66.5165 41.7108 68.045 41.7108C69.2339 41.7108 70.3622 41.4069 71.4297 40.799C72.4973 40.1911 73.3222 39.3279 73.9045 38.2093L77.6531 39.9601C76.7554 41.881 75.421 43.3643 73.6498 44.4099C71.9028 45.4311 70.0346 45.9418 68.045 45.9418C66.3466 45.9418 64.7696 45.65 63.3138 45.0664C61.858 44.4585 60.6327 43.5102 59.638 42.2214C58.6675 40.9327 58.1822 39.4008 58.1822 37.6258Z" fill="#252525"/>
<path d="M122.874 26.6048C122.874 27.5531 122.667 28.4771 122.255 29.3768C121.867 30.2765 121.284 30.9816 120.508 31.4923C122.861 32.5135 124.038 34.5561 124.038 37.6198C123.99 40.3189 123.153 42.2763 121.527 43.4921C119.901 44.7079 117.73 45.3158 115.012 45.3158H105.004V19.4924H115.049C117.305 19.4924 119.173 20.1125 120.653 21.3526C122.133 22.5684 122.874 24.3191 122.874 26.6048ZM109.226 29.778H115.049C116.165 29.778 117.05 29.5105 117.706 28.9756C118.385 28.4406 118.725 27.6017 118.725 26.4589C118.725 25.5106 118.373 24.7933 117.669 24.307C116.99 23.7963 116.116 23.541 115.049 23.541H109.226V29.778ZM109.226 41.2672H115.049C118.227 41.3402 119.816 40.0757 119.816 37.4739C119.816 34.8235 118.227 33.5226 115.049 33.5713H109.226V41.2672ZM138.498 19.4924L147.815 45.3158H143.411L140.9 38.6046H131.656L129.326 45.3158H124.813L134.094 19.4924H138.498ZM136.35 23.7598H136.205L135.149 27.9178L133.075 34.3737H139.444L137.333 27.8449L136.35 23.7598ZM152.952 26.7142C152.952 27.6382 153.425 28.3312 154.371 28.7932C155.317 29.2552 156.652 29.6443 158.374 29.9604C159.418 30.1549 160.328 30.3616 161.104 30.5804C161.905 30.7993 162.742 31.1275 163.615 31.5652C164.513 32.0029 165.241 32.5135 165.799 33.0971C166.357 33.6564 166.806 34.398 167.146 35.322C167.485 36.246 167.619 37.2916 167.546 38.4587C167.449 40.7687 166.454 42.556 164.562 43.8204C162.693 45.0605 160.485 45.6805 157.938 45.6805C155.9 45.6805 153.995 45.1456 152.224 44.0757C150.477 42.9815 149.167 41.4374 148.293 39.4435L152.151 37.6928C152.709 38.9086 153.51 39.8447 154.553 40.5013C155.621 41.1335 156.773 41.4496 158.011 41.4496C159.418 41.4496 160.631 41.17 161.65 40.6107C162.669 40.0271 163.215 39.2004 163.288 38.1305C163.336 37.5712 163.251 37.0727 163.033 36.6351C162.815 36.1974 162.56 35.857 162.269 35.6138C161.978 35.3463 161.517 35.1032 160.886 34.8843C160.279 34.6655 159.757 34.5074 159.321 34.4102C158.908 34.3129 158.29 34.1792 157.465 34.009C156.251 33.7658 155.184 33.4862 154.262 33.1701C153.364 32.8539 152.466 32.4163 151.569 31.857C150.671 31.2977 149.967 30.5561 149.458 29.6321C148.973 28.7081 148.73 27.6382 148.73 26.4224C148.876 24.1854 149.846 22.4103 151.642 21.0973C153.461 19.7842 155.572 19.1277 157.974 19.1277C162.536 19.1277 165.629 20.9878 167.255 24.7082L163.433 26.4224C162.511 24.3799 160.692 23.3586 157.974 23.3586C156.615 23.3586 155.439 23.6626 154.444 24.2705C153.449 24.8541 152.952 25.6686 152.952 26.7142ZM175.368 23.6869V30.2886H187.124V34.5196H175.368V41.0848H188.143V45.3158H171.147V19.4559H188.143V23.6869H175.368Z" fill="#252525"/>
</svg>
